<?xml version="1.0" encoding="utf-8"?>
<!-- Generator: Adobe Illustrator 20.1.0, SVG Export Plug-In . SVG Version: 6.00 Build 0)  -->
<svg version="1.1" id="Capa_1" xmlns="http://www.w3.org/2000/svg" xmlns:xlink="http://www.w3.org/1999/xlink" x="0px" y="0px"
	 viewBox="0 0 595.3 579" style="enable-background:new 0 0 595.3 579;" xml:space="preserve">
<style type="text/css">
	.st0{fill:#6EAB24;}
	.st1{fill-rule:evenodd;clip-rule:evenodd;fill:#FFFFFF;}
</style>
<path class="st0" d="M18.1,288.8C18.1,134,143.6,8.6,298.4,8.6c154.8,0,280.2,125.5,280.2,280.2c0,154.8-125.5,280.2-280.2,280.2
	C143.6,569,18.1,443.6,18.1,288.8z"/>
<path class="st1" d="M359.3,320.7h-32.8c-3.3,13.3-11.6,23.5-27.9,23.5c-8.8,0-16.1-3.3-20.7-8.6c-6.3-7-8.2-14.9-8.2-46.8
	c0-31.9,1.9-39.8,8.2-46.8c4.7-5.3,11.9-8.6,20.7-8.6c16.3,0,24.7,10.2,27.9,23.5h32.8c-5.8-34.7-30-52.4-61-52.4
	c-18.2,0-33.1,6.5-44.7,18.1c-16.8,16.8-16.3,37.5-16.3,66.1c0,28.6-0.5,49.4,16.3,66.1c11.6,11.6,26.5,18.2,44.7,18.2
	C329.1,373.1,353.5,355.4,359.3,320.7z"/>
</svg>
